<svg width="110" height="110" viewBox="0 0 110 110" fill="none" xmlns="http://www.w3.org/2000/svg">
<path d="M59.5146 91.8827L59.5261 91.8778L91.2326 78.3358C91.8953 77.9313 92.3848 77.2952 92.6055 76.5502C92.8286 75.7973 92.7611 74.9881 92.4163 74.2826C92.0715 73.5771 91.4745 73.0266 90.7434 72.7401C90.0123 72.4536 89.2003 72.4518 88.4679 72.7352L88.4573 72.7393L88.4572 72.7391L67.0196 80.2896C65.942 81.062 64.6485 81.4768 63.3217 81.4745M59.5146 91.8827L50.3076 71.0718C51.1775 71.5384 52.1497 71.7814 53.1369 71.7791V72.152H53.1373C53.1375 72.152 53.1376 72.152 53.1378 72.152L63.3199 72.152C63.8972 72.1597 64.4588 72.3407 64.9319 72.6715C65.4057 73.0027 65.7689 73.4688 65.9742 74.0092C66.1796 74.5496 66.2176 75.1393 66.0834 75.7015C65.9548 76.2398 65.6741 76.7292 65.2755 77.1115L63.0186 77.8994H47.6197C47.1456 77.8994 46.691 78.0878 46.3557 78.423C46.0205 78.7582 45.8322 79.2129 45.8322 79.687C45.8322 80.1611 46.0205 80.6157 46.3557 80.951C46.691 81.2862 47.1456 81.4745 47.6197 81.4745H63.3217M59.5146 91.8827L59.5035 91.8884C58.1725 92.5654 56.6953 92.9046 55.2023 92.8761C53.7093 92.8477 52.2461 92.4525 50.9418 91.7253L50.9062 91.7054L50.867 91.6937L39.1649 88.1972C35.4185 86.1065 30.954 85.7702 26.8153 85.8937V65.9134H39.0321C39.4989 65.9143 39.9588 66.0258 40.374 66.2389C40.3747 66.2393 40.3753 66.2396 40.376 66.2399L50.1313 71.4004C50.1317 71.4006 50.1321 71.4008 50.1325 71.401L59.5146 91.8827ZM63.3217 81.4745L63.3223 81.1016M63.3217 81.4745H63.3223V81.1016M63.3223 81.1016C64.5885 81.1038 65.8223 80.7024 66.8448 79.9558L63.3223 81.1016ZM95.9243 73.0878L95.9244 73.0878L95.9214 73.0805C95.2442 71.4299 93.9402 70.1151 92.2951 69.4246C90.6529 68.7352 88.8047 68.724 87.1544 69.3932L69.7186 75.5292C69.7697 74.8065 69.6985 74.0787 69.5068 73.377C69.2607 72.4765 68.8218 71.6402 68.2205 70.9261C67.6192 70.212 66.8699 69.6371 66.0245 69.2412C65.179 68.8454 64.2577 68.638 63.3242 68.6335H63.3223L53.1369 68.6335L53.1362 68.6335C52.6699 68.6343 52.2108 68.5184 51.8007 68.2965L51.7976 68.2948L42.0365 63.1313L42.0346 63.1303C41.1079 62.6468 40.0781 62.3945 39.0328 62.3949C39.0328 62.3949 39.0327 62.3949 39.0327 62.3949H26.8153V57.6892C26.8153 57.2151 26.627 56.7604 26.2918 56.4252L26.0295 56.6875L26.2918 56.4252C25.9565 56.09 25.5019 55.9016 25.0278 55.9016H15.394C14.9199 55.9016 14.4653 56.09 14.13 56.4252C13.7948 56.7604 13.6065 57.2151 13.6065 57.6892V92.3481C13.6065 92.8222 13.7948 93.2769 14.13 93.6121C14.4653 93.9473 14.9199 94.1357 15.394 94.1357H25.0278C25.5019 94.1357 25.9565 93.9473 26.2918 93.6121C26.627 93.2769 26.8153 92.8222 26.8153 92.3481V89.467C30.6234 89.3311 34.603 89.6585 37.8854 91.5399L37.9236 91.5618L37.9659 91.5742L49.7016 95.0159C51.4515 95.9144 53.3904 96.3832 55.3579 96.3832C57.3328 96.3832 59.279 95.9109 61.034 95.0057L92.7522 81.4445L92.7655 81.4388L92.7783 81.4321C94.2359 80.6703 95.3621 79.3987 95.9423 77.8598C96.5225 76.3209 96.5161 74.6223 95.9243 73.0878ZM23.2402 90.5605H17.1816V59.4767H23.2402V90.5605Z" fill="#222222" stroke="#222222" stroke-width="0.745816"/>
<path d="M89.8914 59.4593L89.8915 59.4594L89.8988 59.4521C93.3598 55.9839 94.9693 51.4182 95.7139 47.6899C96.449 44.0094 96.349 41.1051 96.3312 40.7867C96.3282 40.3168 96.1402 39.8667 95.8077 39.5342C95.4724 39.199 95.0177 39.0107 94.5437 39.0107H94.5429H94.5421H94.5413H94.5405H94.5397H94.5388H94.538H94.5371H94.5362H94.5353H94.5343H94.5333H94.5324H94.5314H94.5303H94.5293H94.5282H94.5272H94.5261H94.5249H94.5238H94.5227H94.5215H94.5203H94.5191H94.5179H94.5166H94.5153H94.5141H94.5128H94.5114H94.5101H94.5087H94.5074H94.506H94.5046H94.5031H94.5017H94.5002H94.4987H94.4972H94.4957H94.4941H94.4926H94.491H94.4894H94.4878H94.4861H94.4845H94.4828H94.4811H94.4794H94.4777H94.4759H94.4742H94.4724H94.4706H94.4688H94.4669H94.4651H94.4632H94.4613H94.4594H94.4575H94.4555H94.4536H94.4516H94.4496H94.4476H94.4455H94.4435H94.4414H94.4393H94.4372H94.4351H94.433H94.4308H94.4286H94.4264H94.4242H94.422H94.4197H94.4174H94.4152H94.4129H94.4105H94.4082H94.4058H94.4035H94.4011H94.3987H94.3962H94.3938H94.3913H94.3888H94.3863H94.3838H94.3813H94.3787H94.3762H94.3736H94.371H94.3684H94.3657H94.3631H94.3604H94.3577H94.355H94.3523H94.3495H94.3468H94.344H94.3412H94.3384H94.3356H94.3327H94.3298H94.327H94.3241H94.3212H94.3182H94.3153H94.3123H94.3093H94.3063H94.3033H94.3003H94.2972H94.2941H94.291H94.2879H94.2848H94.2817H94.2785H94.2754H94.2722H94.269H94.2657H94.2625H94.2592H94.256H94.2527H94.2494H94.246H94.2427H94.2393H94.236H94.2326H94.2292H94.2257H94.2223H94.2188H94.2154H94.2119H94.2084H94.2048H94.2013H94.1977H94.1942H94.1906H94.187H94.1833H94.1797H94.176H94.1724H94.1687H94.165H94.1612H94.1575H94.1537H94.15H94.1462H94.1424H94.1385H94.1347H94.1309H94.127H94.1231H94.1192H94.1153H94.1113H94.1074H94.1034H94.0994H94.0954H94.0914H94.0874H94.0833H94.0793H94.0752H94.0711H94.067H94.0628H94.0587H94.0545H94.0503H94.0462H94.0419H94.0377H94.0335H94.0292H94.0249H94.0206H94.0163H94.012H94.0077H94.0033H93.999H93.9946H93.9902H93.9858H93.9813H93.9769H93.9724H93.9679H93.9634H93.9589H93.9544H93.9499H93.9453H93.9407H93.9361H93.9315H93.9269H93.9223H93.9176H93.9129H93.9083H93.9036H93.8989H93.8941H93.8894H93.8846H93.8798H93.8751H93.8702H93.8654H93.8606H93.8557H93.8509H93.846H93.8411H93.8362H93.8312H93.8263H93.8213H93.8164H93.8114H93.8064H93.8013H93.7963H93.7913H93.7862H93.7811H93.776H93.7709H93.7658H93.7606H93.7555H93.7503H93.7451H93.7399H93.7347H93.7295H93.7242H93.719H93.7137H93.7084H93.7031H93.6978H93.6924H93.6871H93.6817H93.6764H93.671H93.6656H93.6601H93.6547H93.6492H93.6438H93.6383H93.6328H93.6273H93.6217H93.6162H93.6107H93.6051H93.5995H93.5939H93.5883H93.5827H93.577H93.5714H93.5657H93.56H93.5543H93.5486H93.5429H93.5371H93.5313H93.5256H93.5198H93.514H93.5082H93.5023H93.4965H93.4906H93.4848H93.4789H93.473H93.4671H93.4611H93.4552H93.4492H93.4433H93.4373H93.4313H93.4253H93.4192H93.4132H93.4071H93.4011H93.395H93.3889H93.3828H93.3766H93.3705H93.3643H93.3582H93.352H93.3458H93.3396H93.3334H93.3271H93.3209H93.3146H93.3083H93.302H93.2957H93.2894H93.2831H93.2767H93.2704H93.264H93.2576H93.2512H93.2448H93.2383H93.2319H93.2254H93.219H93.2125H93.206H93.1995H93.193H93.1864H93.1799H93.1733H93.1667H93.1601H93.1535H93.1469H93.1403H93.1336H93.127H93.1203H93.1136H93.1069H93.1002H93.0935H93.0867H93.08H93.0732H93.0664H93.0597H93.0528H93.046H93.0392H93.0324H93.0255H93.0186H93.0117H93.0048H92.9979H92.991H92.9841H92.9771H92.9702H92.9632H92.9562H92.9492H92.9422H92.9352H92.9281H92.9211H92.914H92.9069H92.8998H92.8927H92.8856H92.8785H92.8714H92.8642H92.857H92.8498H92.8427H92.8355H92.8282H92.821H92.8138H92.8065H92.7992H92.792H92.7847H92.7774H92.77H92.7627H92.7554H92.748H92.7406H92.7333H92.7259H92.7185H92.711H92.7036H92.6962H92.6887H92.6812H92.6738H92.6663H92.6588H92.6512H92.6437H92.6362H92.6286H92.6211H92.6135H92.6059H92.5983H92.5907H92.583H92.5754H92.5677H92.5601H92.5524H92.5447H92.537H92.5293H92.5216H92.5138H92.5061H92.4983H92.4906H92.4828H92.475H92.4733C95.5111 24.1157 81.284 10.4729 66.3597 14.2401H66.3073H66.2629L66.2198 14.2505C62.6511 15.1117 59.3609 16.8685 56.66 19.3549C53.9591 21.8414 51.9368 24.9754 50.7841 28.4609C49.6314 31.9463 49.3864 35.6682 50.0722 39.2746C50.7507 42.8421 52.3177 46.1802 54.6276 48.9806C54.4727 54.7133 56.3278 58.9264 59.3657 61.7128C62.4178 64.5122 66.6229 65.8343 71.0683 65.8567C74.5275 65.956 83.258 65.7473 89.8914 59.4593ZM59.9842 32.9861L59.9848 32.9858L60.0569 32.9594C61.0876 32.5816 62.1799 32.1812 63.1065 31.6007C64.0653 31.0001 64.8715 30.1923 65.2744 28.9916C65.8705 27.2183 65.159 25.7701 64.4225 24.271C64.4079 24.2412 64.3932 24.2114 64.3786 24.1815L64.3786 24.1815L64.3749 24.1742C63.607 22.6927 62.9853 21.1402 62.5185 19.5387C63.3221 19.1156 64.1548 18.7505 65.0103 18.4461C65.1909 20.1569 65.8775 21.7664 66.7103 23.0065C67.1671 23.6866 67.6741 24.265 68.1773 24.6929C68.6344 25.0816 69.1159 25.3696 69.5737 25.471C69.5801 25.4753 69.5863 25.4792 69.5922 25.4828C69.6474 25.5167 69.7046 25.539 69.7539 25.5545C69.8521 25.5853 69.9663 25.6038 70.0819 25.6159C70.3162 25.6404 70.623 25.6451 70.9692 25.6377C71.6653 25.6229 72.5725 25.5574 73.4923 25.4777C74.2301 25.4138 74.9822 25.3402 75.6471 25.2751C75.8123 25.259 75.9721 25.2433 76.1249 25.2285C76.8285 25.1602 77.3646 25.1113 77.6206 25.1022C77.7272 25.1545 77.8073 25.2242 77.9011 25.3577C78.0271 25.5371 78.1637 25.8116 78.3821 26.2831C79.1351 28.411 80.8714 29.9595 82.9064 30.9996C84.852 31.994 87.1035 32.542 89.1302 32.6916C89.4769 34.9577 89.3848 37.2693 88.8591 39.5004C88.0773 39.3634 87.2091 39.1053 86.2669 38.7998C85.9874 38.7092 85.7013 38.6144 85.4099 38.5178C84.5902 38.2461 83.7289 37.9606 82.8548 37.7159C80.4866 37.053 77.9156 36.6553 75.5185 37.6231L75.5078 37.6274L75.4975 37.6324C74.1658 38.2679 73.6233 39.1726 72.3933 41.2236C72.3616 41.2764 72.3295 41.33 72.2968 41.3844L72.2967 41.3843L72.2908 41.3949C71.392 43.0095 70.4123 44.5776 69.3552 46.0931C68.2251 45.55 67.0114 45.1993 65.7643 45.0562C65.638 45.0276 65.4823 45.0206 65.3267 45.0227C65.1491 45.0251 64.9387 45.0402 64.7077 45.0667C64.2454 45.1198 63.6838 45.2207 63.109 45.3689C62.5348 45.517 61.9383 45.7147 61.4098 45.9642C60.9689 46.1724 60.5542 46.4265 60.2416 46.7348C59.1932 46.4799 58.1269 46.3051 57.052 46.2119C54.4248 42.7799 53.1201 38.5192 53.3723 34.2084C55.6281 34.1721 57.8629 33.7592 59.9842 32.9861ZM80.3491 40.655C81.0848 40.7979 81.8057 40.9916 82.4232 41.1821C76.964 43.2999 72.4992 48.7225 70.9227 54.1642C70.3155 52.9345 69.5193 51.8048 68.5613 50.8172C67.6533 49.8811 66.6134 49.0865 65.4765 48.4574C65.5056 48.4569 65.5347 48.4567 65.5638 48.4566C66.1933 48.4851 66.8057 48.6708 67.3451 48.9969L67.3676 49.0106L67.3919 49.0209C68.2807 49.3993 69.0168 49.63 69.6728 49.6358C70.356 49.6418 70.9209 49.4045 71.4586 48.9264C71.9794 48.4634 72.4817 47.7683 73.0632 46.8502C73.4412 46.2532 73.8636 45.5437 74.3536 44.7208C74.6192 44.2747 74.9046 43.7953 75.2136 43.2824L75.2137 43.2824L75.2181 43.2747C75.6758 42.4721 76.101 41.7755 76.4421 41.2828C76.6136 41.0351 76.7571 40.8488 76.8679 40.728C76.9145 40.6772 76.9491 40.645 76.972 40.6263L77.0092 40.6136C77.8434 40.3292 79.0818 40.4089 80.3491 40.655ZM76.9972 40.6083C76.9971 40.6085 76.9949 40.61 76.9908 40.6121C76.9952 40.6092 76.9972 40.6081 76.9972 40.6083ZM80.5767 52.3846L73.4396 59.509C73.9846 55.2158 75.5107 51.5364 78.0039 48.7329C80.694 45.708 84.534 43.6757 89.5567 43.0069L89.5618 43.0062C90.6374 42.8479 91.7208 42.7492 92.807 42.7104C92.7215 44.2032 92.4733 46.5333 91.7641 49.0322C90.9872 51.7697 89.664 54.6853 87.4189 56.9303C84.1453 60.204 79.4556 61.5046 75.9888 62.0166L83.0986 54.9067C83.2805 54.7483 83.4284 54.5547 83.5335 54.3375C83.6408 54.1157 83.7011 53.8742 83.7106 53.628C83.7201 53.3818 83.6786 53.1363 83.5887 52.9069C83.4989 52.6775 83.3625 52.4692 83.1883 52.295C83.0141 52.1208 82.8058 51.9845 82.5764 51.8946L82.4404 52.2418L82.5764 51.8946C82.347 51.8047 82.1015 51.7633 81.8553 51.7728C81.6092 51.7823 81.3676 51.8426 81.1458 51.9499L81.3082 52.2856L81.1458 51.9499C80.9287 52.0549 80.7351 52.2028 80.5767 52.3846ZM88.1815 28.8496C86.8997 28.6335 85.582 28.2613 84.4497 27.6688C83.1385 26.9826 82.1011 26.0153 81.6257 24.674L81.6252 24.6724C81.1576 23.3714 80.1935 22.3087 78.9441 21.7171L78.9441 21.7169L78.9339 21.7125C78.5354 21.5381 78.2177 21.468 77.553 21.485C76.9433 21.5007 76.0039 21.5905 74.3773 21.7462L74.1691 21.7661H73.4654H73.4353L73.4055 21.7709C72.5063 21.9172 71.5953 21.9776 70.6847 21.9513C70.5038 21.9031 70.2704 21.744 70.0084 21.4382C69.7405 21.1254 69.4773 20.6994 69.2455 20.2094C68.8309 19.3331 68.5403 18.3035 68.4859 17.4445C71.2471 17.0005 74.0754 17.2053 76.7463 18.0445C79.5193 18.9157 82.0404 20.4449 84.0943 22.5015C85.889 24.3087 87.2809 26.4722 88.1815 28.8496ZM58.5916 22.5024L58.5923 22.5017C58.8641 22.2299 59.1499 21.9697 59.447 21.7112C59.9179 23.1251 60.4964 24.5012 61.1776 25.8274C61.52 26.5409 61.7297 26.9855 61.8388 27.3113C61.9419 27.6189 61.9371 27.769 61.8935 27.9059C61.7869 28.2112 61.4568 28.5066 60.8648 28.8164C60.3743 29.0731 59.776 29.305 59.1253 29.5571C59.0063 29.6032 58.8856 29.65 58.7635 29.6977C57.2026 30.2587 55.5677 30.5836 53.9127 30.6624C54.7113 27.5748 56.3261 24.7555 58.5916 22.5024ZM63.0932 58.058L66.1765 61.4888C63.5221 60.72 61.6165 59.2042 60.3348 57.2807C58.9419 55.1906 58.2739 52.6 58.2113 49.9292C60.8314 50.2516 63.3228 51.2004 65.2443 52.8246C67.0116 54.3185 68.3109 56.395 68.7848 59.1207L65.7578 55.6804C65.6069 55.4943 65.4201 55.3404 65.2086 55.2279C64.9943 55.114 64.7591 55.0449 64.5173 55.0248C64.2755 55.0047 64.0322 55.034 63.8021 55.111C63.572 55.188 63.3599 55.3111 63.1789 55.4726C62.9979 55.6342 62.8517 55.831 62.7492 56.0509C62.6466 56.2708 62.59 56.5093 62.5826 56.7518C62.5752 56.9943 62.6173 57.2358 62.7062 57.4616C62.794 57.6843 62.9256 57.8871 63.0932 58.058Z" fill="#222222" stroke="#222222" stroke-width="0.745816"/>
</svg>
