<svg width="110" height="110" viewBox="0 0 110 110" fill="none" xmlns="http://www.w3.org/2000/svg">
<mask id="path-1-outside-1" maskUnits="userSpaceOnUse" x="13" y="13" width="84" height="84" fill="black">
<rect fill="white" x="13" y="13" width="84" height="84"/>
<path d="M95.597 73.2422C94.9573 71.6829 93.7254 70.4409 92.1714 69.7885C90.6174 69.1362 88.8681 69.1267 87.3071 69.7621L69.2986 76.0998C69.4442 75.2324 69.3995 74.3438 69.1677 73.4954C68.9358 72.647 68.5223 71.8592 67.9559 71.1864C67.3894 70.5137 66.6835 69.9721 65.887 69.5991C65.0905 69.2262 64.2225 69.0308 63.343 69.0265H53.1575C52.629 69.0274 52.1086 68.8961 51.6438 68.6446L41.8827 63.4811C41.0093 63.0254 40.0386 62.7876 39.0534 62.7879H26.4631V57.7093C26.4631 57.3341 26.314 56.9743 26.0487 56.709C25.7834 56.4437 25.4236 56.2947 25.0484 56.2947H15.4146C15.0395 56.2947 14.6796 56.4437 14.4143 56.709C14.149 56.9743 14 57.3341 14 57.7093V92.3682C14 92.7434 14.149 93.1033 14.4143 93.3686C14.6796 93.6339 15.0395 93.7829 15.4146 93.7829H25.0484C25.4236 93.7829 25.7834 93.6339 26.0487 93.3686C26.314 93.1033 26.4631 92.7434 26.4631 92.3682V89.1287C30.3958 88.9589 34.6114 89.2419 38.0915 91.2365L49.8614 94.6883C51.5667 95.5702 53.4586 96.0304 55.3785 96.0304C57.2984 96.0304 59.1903 95.5702 60.8956 94.6883L92.6262 81.1218C94.0026 80.4024 95.0661 79.2016 95.614 77.7484C96.1619 76.2952 96.1558 74.6912 95.597 73.2422ZM23.6338 90.9536H16.8293V59.124H23.6338V90.9536ZM91.4238 78.6886L59.6932 92.2409C58.3076 92.9456 56.77 93.2987 55.2158 93.2691C53.6616 93.2395 52.1386 92.8281 50.7809 92.0712L39.0393 88.5628C35.2622 86.4409 30.707 86.1438 26.4631 86.2994V65.5606H39.0534C39.58 65.5616 40.0988 65.6877 40.5671 65.9284L50.3282 71.0919C51.1981 71.5585 52.1704 71.8016 53.1575 71.7992H63.343C63.9958 71.8075 64.6311 72.0119 65.1662 72.386C65.7013 72.7601 66.1115 73.2866 66.3435 73.8969C66.5754 74.5072 66.6183 75.1732 66.4667 75.8083C66.3151 76.4434 65.9759 77.0181 65.4932 77.4578L63.1025 78.2925H47.6404C47.2652 78.2925 46.9054 78.4415 46.6401 78.7068C46.3748 78.9721 46.2257 79.3319 46.2257 79.7071C46.2257 80.0823 46.3748 80.4421 46.6401 80.7074C46.9054 80.9727 47.2652 81.1218 47.6404 81.1218H63.343C64.6091 81.124 65.8429 80.7226 66.8654 79.9759L88.354 72.4075C89.1734 72.0905 90.082 72.0925 90.9001 72.4131C91.7182 72.7337 92.3861 73.3496 92.7719 74.139C93.1578 74.9284 93.2333 75.8339 92.9837 76.6763C92.734 77.5187 92.1774 78.2368 91.4238 78.6886Z"/>
<path d="M55.0248 48.882C54.657 60.2982 62.3386 65.4617 71.0952 65.5041C74.5328 65.6031 83.1339 65.3909 89.6554 59.2089C96.4316 52.4186 96.0072 41.2712 95.9789 40.8185C95.9789 40.4433 95.8299 40.0835 95.5646 39.8182C95.2993 39.5529 94.9395 39.4038 94.5643 39.4038C94.437 39.4038 93.475 39.4038 92.0321 39.4038C95.3989 24.5924 81.2524 10.8562 66.4269 14.6333H66.3279C62.8208 15.4796 59.5874 17.206 56.9332 19.6495C54.279 22.0931 52.2916 25.173 51.1588 28.5982C50.026 32.0235 49.7852 35.681 50.4592 39.2252C51.1332 42.7695 52.6997 46.0833 55.0107 48.8537L55.0248 48.882ZM53.0443 33.8584C55.3748 33.861 57.6875 33.454 59.8771 32.656C61.9991 31.8779 64.2059 31.0857 64.9415 28.893C65.4932 27.252 64.8283 25.9222 64.0644 24.3661C63.239 22.7736 62.5801 21.1001 62.0981 19.3724C63.1418 18.8019 64.2357 18.3284 65.3659 17.9577C65.5357 21.5792 68.1952 24.9037 69.7655 25.1442C70.0201 25.6251 76.768 24.7481 77.7158 24.7481C78.1402 24.9178 78.31 25.2149 78.7485 26.1627C80.1632 30.1945 85.3549 32.1325 89.4715 32.3589C89.8999 34.8803 89.7938 37.4636 89.1603 39.9414C85.553 39.4604 80.2339 36.1501 75.6787 37.9892C74.4338 38.5833 73.9528 39.4038 72.6372 41.5965C71.6802 43.3159 70.6318 44.9829 69.4967 46.5902C68.3181 45.9812 67.038 45.5928 65.7196 45.4444C65.083 45.2746 61.4756 45.8546 60.3864 47.1703C59.2355 46.8776 58.0618 46.6836 56.878 46.5902C54.0569 42.973 52.6896 38.432 53.0443 33.8584ZM83.6856 41.1721C77.5036 42.997 72.3684 49.2781 71.0387 55.3186C70.4176 53.7457 69.4917 52.311 68.3142 51.0971C67.1368 49.8832 65.7309 48.9141 64.1776 48.2454C64.6434 48.1521 65.1172 48.1048 65.5923 48.1039C66.2872 48.1338 66.9634 48.3382 67.5586 48.6981C71.0811 50.1976 71.3782 48.981 74.9148 43.1102C75.8343 41.4975 76.6407 40.2809 76.9095 40.2809C78.7768 39.6443 82.2002 40.677 83.6856 41.2287V41.1721ZM57.8541 49.5327C63.5127 50.0844 68.7752 53.4654 69.3269 60.2982L65.4932 55.9411C65.3731 55.7913 65.2236 55.6676 65.0541 55.5774C64.8846 55.4873 64.6984 55.4326 64.5071 55.4167C64.3157 55.4008 64.1231 55.424 63.941 55.4849C63.7589 55.5459 63.5911 55.6432 63.4479 55.7711C63.3046 55.899 63.1889 56.0547 63.1078 56.2287C63.0266 56.4028 62.9818 56.5915 62.9759 56.7834C62.9701 56.9753 63.0034 57.1665 63.0738 57.3451C63.1442 57.5238 63.2502 57.6862 63.3854 57.8226L67.2757 62.1514C60.5561 60.8499 57.8541 55.2762 57.8541 49.5327ZM87.7032 57.2143C83.9827 60.9348 78.508 62.1514 74.9714 62.5475L82.8651 54.6538C83.0132 54.5269 83.1335 54.3709 83.2184 54.1954C83.3033 54.0199 83.351 53.8287 83.3586 53.6339C83.3661 53.439 83.3333 53.2448 83.2621 53.0632C83.191 52.8817 83.0831 52.7168 82.9453 52.579C82.8074 52.4411 82.6425 52.3332 82.461 52.2621C82.2795 52.191 82.0852 52.1581 81.8904 52.1657C81.6955 52.1732 81.5044 52.2209 81.3289 52.3058C81.1534 52.3907 80.9973 52.511 80.8705 52.6591L72.9767 60.5387C73.8255 50.9332 79.3285 44.0156 89.5281 42.6575C90.7513 42.4775 91.9844 42.3736 93.2204 42.3463C93.093 45.2888 92.315 52.6025 87.7032 57.2143ZM84.3788 22.2583C86.3591 24.2521 87.8589 26.6711 88.7642 29.3315C85.7793 28.9354 82.3276 27.733 81.2949 24.8188C80.8607 23.6106 79.9654 22.6238 78.8051 22.0744C78.1261 21.7773 77.7583 21.8197 74.2075 22.1593H73.486C72.551 22.3113 71.6035 22.3729 70.6567 22.3432C69.4401 22.0885 68.1103 19.1178 68.1245 17.1514C71.0448 16.6284 74.0483 16.8197 76.8787 17.709C79.7091 18.5982 82.2823 20.1591 84.3788 22.2583ZM58.3493 22.2583C58.7595 21.848 59.198 21.4661 59.6507 21.0841C60.1444 22.6679 60.7739 24.2062 61.5322 25.6817C62.2112 27.0964 62.4234 27.5632 62.2678 28.0442C61.9566 28.9496 60.4712 29.4588 58.9151 30.0671C57.162 30.6979 55.3174 31.0372 53.4546 31.0715C54.2219 27.7308 55.9188 24.6754 58.3493 22.2583Z"/>
</mask>
<path d="M95.597 73.2422C94.9573 71.6829 93.7254 70.4409 92.1714 69.7885C90.6174 69.1362 88.8681 69.1267 87.3071 69.7621L69.2986 76.0998C69.4442 75.2324 69.3995 74.3438 69.1677 73.4954C68.9358 72.647 68.5223 71.8592 67.9559 71.1864C67.3894 70.5137 66.6835 69.9721 65.887 69.5991C65.0905 69.2262 64.2225 69.0308 63.343 69.0265H53.1575C52.629 69.0274 52.1086 68.8961 51.6438 68.6446L41.8827 63.4811C41.0093 63.0254 40.0386 62.7876 39.0534 62.7879H26.4631V57.7093C26.4631 57.3341 26.314 56.9743 26.0487 56.709C25.7834 56.4437 25.4236 56.2947 25.0484 56.2947H15.4146C15.0395 56.2947 14.6796 56.4437 14.4143 56.709C14.149 56.9743 14 57.3341 14 57.7093V92.3682C14 92.7434 14.149 93.1033 14.4143 93.3686C14.6796 93.6339 15.0395 93.7829 15.4146 93.7829H25.0484C25.4236 93.7829 25.7834 93.6339 26.0487 93.3686C26.314 93.1033 26.4631 92.7434 26.4631 92.3682V89.1287C30.3958 88.9589 34.6114 89.2419 38.0915 91.2365L49.8614 94.6883C51.5667 95.5702 53.4586 96.0304 55.3785 96.0304C57.2984 96.0304 59.1903 95.5702 60.8956 94.6883L92.6262 81.1218C94.0026 80.4024 95.0661 79.2016 95.614 77.7484C96.1619 76.2952 96.1558 74.6912 95.597 73.2422ZM23.6338 90.9536H16.8293V59.124H23.6338V90.9536ZM91.4238 78.6886L59.6932 92.2409C58.3076 92.9456 56.77 93.2987 55.2158 93.2691C53.6616 93.2395 52.1386 92.8281 50.7809 92.0712L39.0393 88.5628C35.2622 86.4409 30.707 86.1438 26.4631 86.2994V65.5606H39.0534C39.58 65.5616 40.0988 65.6877 40.5671 65.9284L50.3282 71.0919C51.1981 71.5585 52.1704 71.8016 53.1575 71.7992H63.343C63.9958 71.8075 64.6311 72.0119 65.1662 72.386C65.7013 72.7601 66.1115 73.2866 66.3435 73.8969C66.5754 74.5072 66.6183 75.1732 66.4667 75.8083C66.3151 76.4434 65.9759 77.0181 65.4932 77.4578L63.1025 78.2925H47.6404C47.2652 78.2925 46.9054 78.4415 46.6401 78.7068C46.3748 78.9721 46.2257 79.3319 46.2257 79.7071C46.2257 80.0823 46.3748 80.4421 46.6401 80.7074C46.9054 80.9727 47.2652 81.1218 47.6404 81.1218H63.343C64.6091 81.124 65.8429 80.7226 66.8654 79.9759L88.354 72.4075C89.1734 72.0905 90.082 72.0925 90.9001 72.4131C91.7182 72.7337 92.3861 73.3496 92.7719 74.139C93.1578 74.9284 93.2333 75.8339 92.9837 76.6763C92.734 77.5187 92.1774 78.2368 91.4238 78.6886Z" fill="#222222"/>
<path d="M55.0248 48.882C54.657 60.2982 62.3386 65.4617 71.0952 65.5041C74.5328 65.6031 83.1339 65.3909 89.6554 59.2089C96.4316 52.4186 96.0072 41.2712 95.9789 40.8185C95.9789 40.4433 95.8299 40.0835 95.5646 39.8182C95.2993 39.5529 94.9395 39.4038 94.5643 39.4038C94.437 39.4038 93.475 39.4038 92.0321 39.4038C95.3989 24.5924 81.2524 10.8562 66.4269 14.6333H66.3279C62.8208 15.4796 59.5874 17.206 56.9332 19.6495C54.279 22.0931 52.2916 25.173 51.1588 28.5982C50.026 32.0235 49.7852 35.681 50.4592 39.2252C51.1332 42.7695 52.6997 46.0833 55.0107 48.8537L55.0248 48.882ZM53.0443 33.8584C55.3748 33.861 57.6875 33.454 59.8771 32.656C61.9991 31.8779 64.2059 31.0857 64.9415 28.893C65.4932 27.252 64.8283 25.9222 64.0644 24.3661C63.239 22.7736 62.5801 21.1001 62.0981 19.3724C63.1418 18.8019 64.2357 18.3284 65.3659 17.9577C65.5357 21.5792 68.1952 24.9037 69.7655 25.1442C70.0201 25.6251 76.768 24.7481 77.7158 24.7481C78.1402 24.9178 78.31 25.2149 78.7485 26.1627C80.1632 30.1945 85.3549 32.1325 89.4715 32.3589C89.8999 34.8803 89.7938 37.4636 89.1603 39.9414C85.553 39.4604 80.2339 36.1501 75.6787 37.9892C74.4338 38.5833 73.9528 39.4038 72.6372 41.5965C71.6802 43.3159 70.6318 44.9829 69.4967 46.5902C68.3181 45.9812 67.038 45.5928 65.7196 45.4444C65.083 45.2746 61.4756 45.8546 60.3864 47.1703C59.2355 46.8776 58.0618 46.6836 56.878 46.5902C54.0569 42.973 52.6896 38.432 53.0443 33.8584ZM83.6856 41.1721C77.5036 42.997 72.3684 49.2781 71.0387 55.3186C70.4176 53.7457 69.4917 52.311 68.3142 51.0971C67.1368 49.8832 65.7309 48.9141 64.1776 48.2454C64.6434 48.1521 65.1172 48.1048 65.5923 48.1039C66.2872 48.1338 66.9634 48.3382 67.5586 48.6981C71.0811 50.1976 71.3782 48.981 74.9148 43.1102C75.8343 41.4975 76.6407 40.2809 76.9095 40.2809C78.7768 39.6443 82.2002 40.677 83.6856 41.2287V41.1721ZM57.8541 49.5327C63.5127 50.0844 68.7752 53.4654 69.3269 60.2982L65.4932 55.9411C65.3731 55.7913 65.2236 55.6676 65.0541 55.5774C64.8846 55.4873 64.6984 55.4326 64.5071 55.4167C64.3157 55.4008 64.1231 55.424 63.941 55.4849C63.7589 55.5459 63.5911 55.6432 63.4479 55.7711C63.3046 55.899 63.1889 56.0547 63.1078 56.2287C63.0266 56.4028 62.9818 56.5915 62.9759 56.7834C62.9701 56.9753 63.0034 57.1665 63.0738 57.3451C63.1442 57.5238 63.2502 57.6862 63.3854 57.8226L67.2757 62.1514C60.5561 60.8499 57.8541 55.2762 57.8541 49.5327ZM87.7032 57.2143C83.9827 60.9348 78.508 62.1514 74.9714 62.5475L82.8651 54.6538C83.0132 54.5269 83.1335 54.3709 83.2184 54.1954C83.3033 54.0199 83.351 53.8287 83.3586 53.6339C83.3661 53.439 83.3333 53.2448 83.2621 53.0632C83.191 52.8817 83.0831 52.7168 82.9453 52.579C82.8074 52.4411 82.6425 52.3332 82.461 52.2621C82.2795 52.191 82.0852 52.1581 81.8904 52.1657C81.6955 52.1732 81.5044 52.2209 81.3289 52.3058C81.1534 52.3907 80.9973 52.511 80.8705 52.6591L72.9767 60.5387C73.8255 50.9332 79.3285 44.0156 89.5281 42.6575C90.7513 42.4775 91.9844 42.3736 93.2204 42.3463C93.093 45.2888 92.315 52.6025 87.7032 57.2143ZM84.3788 22.2583C86.3591 24.2521 87.8589 26.6711 88.7642 29.3315C85.7793 28.9354 82.3276 27.733 81.2949 24.8188C80.8607 23.6106 79.9654 22.6238 78.8051 22.0744C78.1261 21.7773 77.7583 21.8197 74.2075 22.1593H73.486C72.551 22.3113 71.6035 22.3729 70.6567 22.3432C69.4401 22.0885 68.1103 19.1178 68.1245 17.1514C71.0448 16.6284 74.0483 16.8197 76.8787 17.709C79.7091 18.5982 82.2823 20.1591 84.3788 22.2583ZM58.3493 22.2583C58.7595 21.848 59.198 21.4661 59.6507 21.0841C60.1444 22.6679 60.7739 24.2062 61.5322 25.6817C62.2112 27.0964 62.4234 27.5632 62.2678 28.0442C61.9566 28.9496 60.4712 29.4588 58.9151 30.0671C57.162 30.6979 55.3174 31.0372 53.4546 31.0715C54.2219 27.7308 55.9188 24.6754 58.3493 22.2583Z" fill="#222222"/>
<path d="M95.597 73.2422C94.9573 71.6829 93.7254 70.4409 92.1714 69.7885C90.6174 69.1362 88.8681 69.1267 87.3071 69.7621L69.2986 76.0998C69.4442 75.2324 69.3995 74.3438 69.1677 73.4954C68.9358 72.647 68.5223 71.8592 67.9559 71.1864C67.3894 70.5137 66.6835 69.9721 65.887 69.5991C65.0905 69.2262 64.2225 69.0308 63.343 69.0265H53.1575C52.629 69.0274 52.1086 68.8961 51.6438 68.6446L41.8827 63.4811C41.0093 63.0254 40.0386 62.7876 39.0534 62.7879H26.4631V57.7093C26.4631 57.3341 26.314 56.9743 26.0487 56.709C25.7834 56.4437 25.4236 56.2947 25.0484 56.2947H15.4146C15.0395 56.2947 14.6796 56.4437 14.4143 56.709C14.149 56.9743 14 57.3341 14 57.7093V92.3682C14 92.7434 14.149 93.1033 14.4143 93.3686C14.6796 93.6339 15.0395 93.7829 15.4146 93.7829H25.0484C25.4236 93.7829 25.7834 93.6339 26.0487 93.3686C26.314 93.1033 26.4631 92.7434 26.4631 92.3682V89.1287C30.3958 88.9589 34.6114 89.2419 38.0915 91.2365L49.8614 94.6883C51.5667 95.5702 53.4586 96.0304 55.3785 96.0304C57.2984 96.0304 59.1903 95.5702 60.8956 94.6883L92.6262 81.1218C94.0026 80.4024 95.0661 79.2016 95.614 77.7484C96.1619 76.2952 96.1558 74.6912 95.597 73.2422ZM23.6338 90.9536H16.8293V59.124H23.6338V90.9536ZM91.4238 78.6886L59.6932 92.2409C58.3076 92.9456 56.77 93.2987 55.2158 93.2691C53.6616 93.2395 52.1386 92.8281 50.7809 92.0712L39.0393 88.5628C35.2622 86.4409 30.707 86.1438 26.4631 86.2994V65.5606H39.0534C39.58 65.5616 40.0988 65.6877 40.5671 65.9284L50.3282 71.0919C51.1981 71.5585 52.1704 71.8016 53.1575 71.7992H63.343C63.9958 71.8075 64.6311 72.0119 65.1662 72.386C65.7013 72.7601 66.1115 73.2866 66.3435 73.8969C66.5754 74.5072 66.6183 75.1732 66.4667 75.8083C66.3151 76.4434 65.9759 77.0181 65.4932 77.4578L63.1025 78.2925H47.6404C47.2652 78.2925 46.9054 78.4415 46.6401 78.7068C46.3748 78.9721 46.2257 79.3319 46.2257 79.7071C46.2257 80.0823 46.3748 80.4421 46.6401 80.7074C46.9054 80.9727 47.2652 81.1218 47.6404 81.1218H63.343C64.6091 81.124 65.8429 80.7226 66.8654 79.9759L88.354 72.4075C89.1734 72.0905 90.082 72.0925 90.9001 72.4131C91.7182 72.7337 92.3861 73.3496 92.7719 74.139C93.1578 74.9284 93.2333 75.8339 92.9837 76.6763C92.734 77.5187 92.1774 78.2368 91.4238 78.6886Z" stroke="#222222" stroke-width="1.49163" mask="url(#path-1-outside-1)"/>
<path d="M55.0248 48.882C54.657 60.2982 62.3386 65.4617 71.0952 65.5041C74.5328 65.6031 83.1339 65.3909 89.6554 59.2089C96.4316 52.4186 96.0072 41.2712 95.9789 40.8185C95.9789 40.4433 95.8299 40.0835 95.5646 39.8182C95.2993 39.5529 94.9395 39.4038 94.5643 39.4038C94.437 39.4038 93.475 39.4038 92.0321 39.4038C95.3989 24.5924 81.2524 10.8562 66.4269 14.6333H66.3279C62.8208 15.4796 59.5874 17.206 56.9332 19.6495C54.279 22.0931 52.2916 25.173 51.1588 28.5982C50.026 32.0235 49.7852 35.681 50.4592 39.2252C51.1332 42.7695 52.6997 46.0833 55.0107 48.8537L55.0248 48.882ZM53.0443 33.8584C55.3748 33.861 57.6875 33.454 59.8771 32.656C61.9991 31.8779 64.2059 31.0857 64.9415 28.893C65.4932 27.252 64.8283 25.9222 64.0644 24.3661C63.239 22.7736 62.5801 21.1001 62.0981 19.3724C63.1418 18.8019 64.2357 18.3284 65.3659 17.9577C65.5357 21.5792 68.1952 24.9037 69.7655 25.1442C70.0201 25.6251 76.768 24.7481 77.7158 24.7481C78.1402 24.9178 78.31 25.2149 78.7485 26.1627C80.1632 30.1945 85.3549 32.1325 89.4715 32.3589C89.8999 34.8803 89.7938 37.4636 89.1603 39.9414C85.553 39.4604 80.2339 36.1501 75.6787 37.9892C74.4338 38.5833 73.9528 39.4038 72.6372 41.5965C71.6802 43.3159 70.6318 44.9829 69.4967 46.5902C68.3181 45.9812 67.038 45.5928 65.7196 45.4444C65.083 45.2746 61.4756 45.8546 60.3864 47.1703C59.2355 46.8776 58.0618 46.6836 56.878 46.5902C54.0569 42.973 52.6896 38.432 53.0443 33.8584ZM83.6856 41.1721C77.5036 42.997 72.3684 49.2781 71.0387 55.3186C70.4176 53.7457 69.4917 52.311 68.3142 51.0971C67.1368 49.8832 65.7309 48.9141 64.1776 48.2454C64.6434 48.1521 65.1172 48.1048 65.5923 48.1039C66.2872 48.1338 66.9634 48.3382 67.5586 48.6981C71.0811 50.1976 71.3782 48.981 74.9148 43.1102C75.8343 41.4975 76.6407 40.2809 76.9095 40.2809C78.7768 39.6443 82.2002 40.677 83.6856 41.2287V41.1721ZM57.8541 49.5327C63.5127 50.0844 68.7752 53.4654 69.3269 60.2982L65.4932 55.9411C65.3731 55.7913 65.2236 55.6676 65.0541 55.5774C64.8846 55.4873 64.6984 55.4326 64.5071 55.4167C64.3157 55.4008 64.1231 55.424 63.941 55.4849C63.7589 55.5459 63.5911 55.6432 63.4479 55.7711C63.3046 55.899 63.1889 56.0547 63.1078 56.2287C63.0266 56.4028 62.9818 56.5915 62.9759 56.7834C62.9701 56.9753 63.0034 57.1665 63.0738 57.3451C63.1442 57.5238 63.2502 57.6862 63.3854 57.8226L67.2757 62.1514C60.5561 60.8499 57.8541 55.2762 57.8541 49.5327ZM87.7032 57.2143C83.9827 60.9348 78.508 62.1514 74.9714 62.5475L82.8651 54.6538C83.0132 54.5269 83.1335 54.3709 83.2184 54.1954C83.3033 54.0199 83.351 53.8287 83.3586 53.6339C83.3661 53.439 83.3333 53.2448 83.2621 53.0632C83.191 52.8817 83.0831 52.7168 82.9453 52.579C82.8074 52.4411 82.6425 52.3332 82.461 52.2621C82.2795 52.191 82.0852 52.1581 81.8904 52.1657C81.6955 52.1732 81.5044 52.2209 81.3289 52.3058C81.1534 52.3907 80.9973 52.511 80.8705 52.6591L72.9767 60.5387C73.8255 50.9332 79.3285 44.0156 89.5281 42.6575C90.7513 42.4775 91.9844 42.3736 93.2204 42.3463C93.093 45.2888 92.315 52.6025 87.7032 57.2143ZM84.3788 22.2583C86.3591 24.2521 87.8589 26.6711 88.7642 29.3315C85.7793 28.9354 82.3276 27.733 81.2949 24.8188C80.8607 23.6106 79.9654 22.6238 78.8051 22.0744C78.1261 21.7773 77.7583 21.8197 74.2075 22.1593H73.486C72.551 22.3113 71.6035 22.3729 70.6567 22.3432C69.4401 22.0885 68.1103 19.1178 68.1245 17.1514C71.0448 16.6284 74.0483 16.8197 76.8787 17.709C79.7091 18.5982 82.2823 20.1591 84.3788 22.2583ZM58.3493 22.2583C58.7595 21.848 59.198 21.4661 59.6507 21.0841C60.1444 22.6679 60.7739 24.2062 61.5322 25.6817C62.2112 27.0964 62.4234 27.5632 62.2678 28.0442C61.9566 28.9496 60.4712 29.4588 58.9151 30.0671C57.162 30.6979 55.3174 31.0372 53.4546 31.0715C54.2219 27.7308 55.9188 24.6754 58.3493 22.2583Z" stroke="#222222" stroke-width="1.49163" mask="url(#path-1-outside-1)"/>
</svg>
