<svg width="110" height="110" viewBox="0 0 110 110" fill="none" xmlns="http://www.w3.org/2000/svg">
<path d="M40.3864 55.1077L40.4771 54.9294C40.0625 54.7185 39.6201 54.706 39.311 54.7424C39.156 54.7606 39.0261 54.7921 38.9409 54.8226C38.9192 54.8303 38.8979 54.8389 38.8785 54.8483C38.8635 54.8556 38.8334 54.8709 38.8064 54.8959C38.8024 54.8996 38.7953 54.9063 38.7872 54.9161C38.6478 54.9853 38.5127 55.0722 38.3889 55.1814L38.3885 55.1816C36.5656 56.7953 34.3523 57.6459 31.9833 57.6459C26.4272 57.6459 21.8812 52.7818 21.8812 46.7721C21.8812 41.6482 25.3135 36.9175 30.37 36.0166C31.1504 35.878 31.7577 35.2646 31.8917 34.484C33.476 25.2474 41.022 18.5591 49.8186 18.5591C56.3075 18.5591 62.362 22.3032 65.6147 28.3418L65.6148 28.342C66.0095 29.0725 66.8336 29.4569 67.6462 29.2927L67.6467 29.2926C75.7293 27.6384 83.3359 34.3782 83.3359 43.3597C83.3359 51.1225 77.5472 57.4251 70.3914 57.6272C70.3833 57.6261 70.374 57.6254 70.3637 57.6254C70.3455 57.6254 70.3302 57.6276 70.3191 57.6299C70.2687 57.6318 70.2198 57.6358 70.1772 57.6391C70.1269 57.6429 70.0834 57.6459 70.0406 57.6459C67.0489 57.6459 64.2369 56.6172 61.9039 54.6695C61.5569 54.3795 61.1291 54.2325 60.6997 54.2325C60.3271 54.2325 59.9546 54.3427 59.6318 54.5647L59.6315 54.5649C54.0092 58.446 46.3949 58.6017 40.6315 54.9963C40.5892 54.9698 40.5473 54.9549 40.5225 54.9462C40.5036 54.9396 40.4934 54.9361 40.4865 54.9335C40.4823 54.9319 40.4794 54.9306 40.4764 54.9291L40.3864 55.1077ZM40.3864 55.1077C40.406 55.1176 40.4265 55.1247 40.447 55.1317C40.4738 55.141 40.5005 55.1503 40.5253 55.1658L38.9507 55.0364C38.9534 55.0348 38.9564 55.0331 38.9598 55.0313C38.9687 55.0266 38.9803 55.0214 38.9943 55.016L38.9619 54.8563C38.9625 54.8563 38.9643 54.8563 38.967 54.8565C38.9712 54.8568 38.9778 54.8575 38.9858 54.8591L38.9859 54.8591C38.9941 54.8607 39.0324 54.8684 39.0701 54.9007C39.0896 54.9175 39.1109 54.9428 39.1245 54.9774C39.3953 54.9135 39.9166 54.8686 40.3864 55.1077ZM70.2964 57.6357C70.2953 57.636 70.2963 57.6357 70.2976 57.6353L70.2964 57.6357ZM89.2291 69.7561C85.4875 69.7561 82.353 72.3541 81.5051 75.8362H72.2433V61.2423C80.6169 60.093 87.095 52.5101 87.095 43.3597C87.095 32.6007 78.2579 24.2286 68.253 25.3925C64.2165 18.8298 57.2679 14.8 49.8186 14.8C39.5739 14.8 30.7692 22.2236 28.432 32.6091C22.1848 34.3673 18.1221 40.3389 18.1221 46.7721C18.1221 54.8302 24.3293 61.405 31.9833 61.405C33.9894 61.405 35.9577 60.9418 37.7553 60.0742V75.8362H28.4951C27.6472 72.3541 24.5125 69.7561 20.7709 69.7561C16.3813 69.7561 12.8112 73.327 12.8112 77.7158C12.8112 82.1055 16.3813 85.6763 20.7709 85.6763C24.5127 85.6763 27.6474 83.0783 28.4951 79.5953H39.6348C40.6736 79.5953 41.5144 78.7538 41.5144 77.7158V59.6375C45.1746 61.1996 49.2164 61.69 53.1188 61.0797V79.384C49.8501 80.2246 47.4192 83.1804 47.4192 86.7098C47.4192 90.8896 50.8204 94.2899 55 94.2899C59.1799 94.2899 62.5793 90.8896 62.5793 86.7098C62.5793 83.1793 60.148 80.2223 56.8779 79.3829V60.1092C58.1614 59.6593 59.4199 59.115 60.6073 58.4069C62.9462 60.0475 65.6662 61.0531 68.4842 61.3261V77.7158C68.4842 78.7538 69.3247 79.5953 70.3637 79.5953H81.5049C82.3526 83.0783 85.4873 85.6763 89.2291 85.6763C93.6187 85.6763 97.1888 82.1055 97.1888 77.7158C97.1888 73.327 93.6187 69.7561 89.2291 69.7561ZM20.7709 81.9172C18.4556 81.9172 16.5703 80.0321 16.5703 77.7158C16.5703 75.3996 18.4556 73.5152 20.7709 73.5152C23.0864 73.5152 24.9715 75.3996 24.9715 77.7158C24.9715 80.0321 23.0864 81.9172 20.7709 81.9172ZM58.8202 86.7098C58.8202 88.8168 57.1054 90.5308 55 90.5308C52.8929 90.5308 51.1783 88.8168 51.1783 86.7098C51.1783 84.6028 52.8929 82.8889 55 82.8889C57.1054 82.8889 58.8202 84.6027 58.8202 86.7098ZM89.2291 81.9172C86.9138 81.9172 85.0285 80.0321 85.0285 77.7158C85.0285 75.3996 86.9137 73.5152 89.2291 73.5152C91.5444 73.5152 93.4297 75.3996 93.4297 77.7158C93.4297 80.0321 91.5444 81.9172 89.2291 81.9172Z" fill="#222222" stroke="#222222" stroke-width="0.4"/>
</svg>
