<svg width="110" height="110" viewBox="0 0 110 110" fill="none" xmlns="http://www.w3.org/2000/svg">
<path d="M88.5859 31.2706C87.9825 32.2187 87.3792 33.1668 86.7759 34.201C90.6544 40.148 92.8953 47.2154 92.8953 54.8C92.8953 75.8298 75.83 92.8951 54.8001 92.8951C47.2156 92.8951 40.1482 90.6542 34.2012 86.7757C33.2531 87.4652 32.2189 88.0686 31.2708 88.5857C37.9935 93.2398 46.0952 95.9978 54.8001 95.9978C77.5538 95.9978 95.998 77.4674 95.998 54.8C96.0842 46.0088 93.3262 37.9071 88.5859 31.2706Z" fill="#222222" stroke="#222222" stroke-width="1.72376"/>
<path d="M27.7371 81.5184C20.9282 74.6233 16.7912 65.2288 16.7912 54.8001C16.7912 33.8564 33.8565 16.7911 54.8002 16.7911C65.2289 16.7911 74.6234 21.0143 81.5184 27.737C82.1218 26.7028 82.7251 25.7547 83.156 24.8928C75.7439 17.9116 65.746 13.6022 54.8002 13.6022C32.0465 13.6022 13.6023 32.0464 13.6023 54.8001C13.6023 65.7459 17.9117 75.7437 24.8929 83.1559C25.7548 82.725 26.7028 82.1217 27.7371 81.5184Z" fill="#222222" stroke="#222222" stroke-width="1.72376"/>
<path d="M46.0089 70.8309C40.7515 75.3127 35.6664 79.1912 31.1846 82.2078C21.8763 88.3271 17.9116 88.4995 17.1359 87.7238C16.5326 87.1205 16.5326 84.7934 19.0321 79.7945C18.3426 78.8464 17.6531 77.8122 17.0498 76.7779C13.7746 82.6387 12.4818 87.5514 14.8951 89.8785C15.7569 90.7404 16.8774 91.0851 18.2564 91.0851C24.8067 91.0851 36.7006 82.8111 47.8189 73.3304C47.2156 72.5547 46.6123 71.6928 46.0089 70.8309Z" fill="#222222" stroke="#222222" stroke-width="1.72376"/>
<path d="M86.4311 16.7912C87.0344 16.7912 87.4653 16.9635 87.6377 17.1359C88.4134 17.9116 88.241 21.7901 82.1217 31.1846C79.3637 35.4078 75.83 40.0619 71.6929 44.8885C72.0377 46.3537 72.2962 47.7327 72.2962 49.0255C84.1902 35.2354 94.7051 19.8077 89.8786 14.895C87.5515 12.5679 82.6388 13.7746 76.6918 17.0497C77.7261 17.7392 78.7604 18.3425 79.7084 19.032C83.0698 17.3945 85.2245 16.7912 86.4311 16.7912Z" fill="#222222" stroke="#222222" stroke-width="1.72376"/>
<path d="M69.3658 45.4055C69.2796 44.8884 69.1072 44.4574 68.9348 44.0265C66.8663 38.1657 61.3503 34.0287 54.8 34.0287C48.2497 34.0287 42.7337 38.1657 40.6651 43.9403C40.4928 44.3713 40.3204 44.8022 40.2342 45.3193C39.8894 46.526 39.7171 47.8188 39.7171 49.1116C39.7171 49.9735 39.8033 50.8354 39.9756 51.8696C39.9756 52.042 40.0618 52.3006 40.0618 52.4729C41.4408 59.4542 46.3535 67.3835 50.1458 72.6409L50.232 72.7271C51.0939 73.9338 51.9558 75.0542 52.6453 75.9161L54.8 78.7603L56.9547 75.8299C57.6442 74.968 58.5061 73.8476 59.3679 72.6409L59.4541 72.5547C63.2464 67.2973 68.1591 59.368 69.5381 52.3867C69.6243 52.2144 69.6243 51.9558 69.6243 51.7834C69.7967 50.8354 69.8829 49.8873 69.8829 49.0254C69.9691 47.8188 69.7105 46.6121 69.3658 45.4055ZM62.126 51.2663C61.5226 54.0243 59.2818 56.2652 56.5237 56.8685C51.0077 58.0752 46.2674 53.3348 47.474 47.8188C48.0773 45.0608 50.3182 42.8199 53.0762 42.2166C58.5923 41.0099 63.3326 45.7503 62.126 51.2663Z" fill="#222222"/>
</svg>
