<svg width="110" height="110" viewBox="0 0 110 110" fill="none" xmlns="http://www.w3.org/2000/svg">
<g clip-path="url(#clip0)">
<path d="M57.7341 53.8916H53.4341V50.8081C53.3939 50.292 53.1597 49.8101 52.7784 49.4585C52.3971 49.107 51.8968 48.9118 51.3774 48.9118C50.858 48.9118 50.3576 49.107 49.9764 49.4585C49.5951 49.8101 49.3609 50.292 49.3206 50.8081V53.8916H22.5269V50.8081C22.5269 50.2645 22.3102 49.7432 21.9245 49.3588C21.5388 48.9744 21.0157 48.7585 20.4702 48.7585C19.9247 48.7585 19.4016 48.9744 19.0158 49.3588C18.6301 49.7432 18.4134 50.2645 18.4134 50.8081V53.8916H14.1135C13.5723 53.8916 13.0364 53.9981 12.5365 54.2048C12.0366 54.4116 11.5826 54.7147 11.2004 55.0966C10.8183 55.4786 10.5156 55.9319 10.3096 56.4306C10.1036 56.9294 9.99838 57.4638 10 58.0031V92.9009C10 93.9881 10.4334 95.0307 11.2048 95.7994C11.9763 96.5681 13.0226 97 14.1135 97H57.7341C58.825 97 59.8713 96.5681 60.6427 95.7994C61.4142 95.0307 61.8476 93.9881 61.8476 92.9009V58.0031C61.8492 57.4638 61.744 56.9294 61.538 56.4306C61.332 55.9319 61.0293 55.4786 60.6472 55.0966C60.265 54.7147 59.811 54.4116 59.3111 54.2048C58.8112 53.9981 58.2753 53.8916 57.7341 53.8916ZM56.3546 90.3375C56.3546 90.6068 56.3012 90.8736 56.1973 91.1223C56.0935 91.371 55.9414 91.5968 55.7496 91.7867C55.5579 91.9766 55.3304 92.1269 55.0802 92.2288C54.8299 92.3308 54.562 92.3824 54.2916 92.3808H17.5559C17.2856 92.3824 17.0176 92.3308 16.7674 92.2288C16.5172 92.1269 16.2897 91.9766 16.098 91.7867C15.9062 91.5968 15.7541 91.371 15.6502 91.1223C15.5464 90.8736 15.493 90.6068 15.493 90.3375V66.3746C15.493 65.8294 15.7103 65.3065 16.0972 64.921C16.4841 64.5355 17.0088 64.3189 17.5559 64.3189H54.2916C54.8388 64.3189 55.3635 64.5355 55.7504 64.921C56.1373 65.3065 56.3546 65.8294 56.3546 66.3746V90.3375ZM27.8086 71.1053V73.4087C27.8086 73.9539 27.5913 74.4768 27.2044 74.8623C26.8175 75.2478 26.2928 75.4644 25.7457 75.4644H23.4342C22.887 75.4644 22.3623 75.2478 21.9754 74.8623C21.5885 74.4768 21.3712 73.9539 21.3712 73.4087V71.1053C21.3712 70.56 21.5885 70.0372 21.9754 69.6516C22.3623 69.2661 22.887 69.0495 23.4342 69.0495H25.7457C26.2928 69.0495 26.8175 69.2661 27.2044 69.6516C27.5913 70.0372 27.8086 70.56 27.8086 71.1053ZM27.8086 83.4272V85.7306C27.8086 86.2759 27.5913 86.7987 27.2044 87.1843C26.8175 87.5698 26.2928 87.7864 25.7457 87.7864H23.4342C22.887 87.7864 22.3623 87.5698 21.9754 87.1843C21.5885 86.7987 21.3712 86.2759 21.3712 85.7306V83.3653C21.3712 82.8201 21.5885 82.2972 21.9754 81.9117C22.3623 81.5262 22.887 81.3096 23.4342 81.3096H25.7457C26.2928 81.3096 26.8175 81.5262 27.2044 81.9117C27.5913 82.2972 27.8086 82.8201 27.8086 83.3653V83.4272ZM39.1549 71.1053V73.4087C39.1549 73.6797 39.1012 73.948 38.9967 74.1982C38.8923 74.4485 38.7392 74.6756 38.5463 74.8667C38.3534 75.0577 38.1246 75.2089 37.8728 75.3115C37.6211 75.4141 37.3515 75.466 37.0796 75.4644H34.7556C34.4853 75.4644 34.2176 75.4111 33.968 75.3077C33.7184 75.2042 33.4918 75.0526 33.3012 74.8615C33.1107 74.6705 32.9599 74.4438 32.8576 74.1944C32.7553 73.9451 32.7034 73.678 32.7051 73.4087V71.1053C32.7034 70.8359 32.7553 70.5688 32.8576 70.3195C32.9599 70.0702 33.1107 69.8434 33.3012 69.6524C33.4918 69.4613 33.7184 69.3097 33.968 69.2063C34.2176 69.1028 34.4853 69.0495 34.7556 69.0495H37.0796C37.3515 69.0479 37.6211 69.0999 37.8728 69.2024C38.1246 69.305 38.3534 69.4562 38.5463 69.6472C38.7392 69.8383 38.8923 70.0655 38.9967 70.3157C39.1012 70.5659 39.1549 70.8343 39.1549 71.1053ZM39.1549 83.4272V85.7306C39.1549 86.0016 39.1012 86.27 38.9967 86.5202C38.8923 86.7704 38.7392 86.9976 38.5463 87.1887C38.3534 87.3797 38.1246 87.5309 37.8728 87.6335C37.6211 87.736 37.3515 87.788 37.0796 87.7864H34.7556C34.4853 87.7864 34.2176 87.7331 33.968 87.6297C33.7184 87.5262 33.4918 87.3746 33.3012 87.1835C33.1107 86.9925 32.9599 86.7657 32.8576 86.5164C32.7553 86.2671 32.7034 86 32.7051 85.7306V83.3653C32.7034 83.0959 32.7553 82.8289 32.8576 82.5796C32.9599 82.3302 33.1107 82.1035 33.3012 81.9125C33.4918 81.7214 33.7184 81.5698 33.968 81.4663C34.2176 81.3628 34.4853 81.3096 34.7556 81.3096H37.0796C37.3515 81.308 37.6211 81.3599 37.8728 81.4625C38.1246 81.5651 38.3534 81.7163 38.5463 81.9073C38.7392 82.0984 38.8923 82.3255 38.9967 82.5758C39.1012 82.826 39.1549 83.0943 39.1549 83.3653V83.4272ZM50.4764 71.1053V73.4087C50.478 73.678 50.4262 73.9451 50.3239 74.1944C50.2216 74.4438 50.0708 74.6705 49.8802 74.8615C49.6896 75.0526 49.463 75.2042 49.2134 75.3077C48.9639 75.4111 48.6962 75.4644 48.4259 75.4644H46.1019C45.5548 75.4644 45.0301 75.2478 44.6432 74.8623C44.2563 74.4768 44.039 73.9539 44.039 73.4087V71.1053C44.039 70.56 44.2563 70.0372 44.6432 69.6516C45.0301 69.2661 45.5548 69.0495 46.1019 69.0495H48.4259C48.6962 69.0495 48.9639 69.1028 49.2134 69.2063C49.463 69.3097 49.6896 69.4613 49.8802 69.6524C50.0708 69.8434 50.2216 70.0702 50.3239 70.3195C50.4262 70.5688 50.478 70.8359 50.4764 71.1053ZM50.4764 83.4272V85.7306C50.478 86 50.4262 86.2671 50.3239 86.5164C50.2216 86.7657 50.0708 86.9925 49.8802 87.1835C49.6896 87.3746 49.463 87.5262 49.2134 87.6297C48.9639 87.7331 48.6962 87.7864 48.4259 87.7864H46.1019C45.5548 87.7864 45.0301 87.5698 44.6432 87.1843C44.2563 86.7987 44.039 86.2759 44.039 85.7306V83.3653C44.039 82.8201 44.2563 82.2972 44.6432 81.9117C45.0301 81.5262 45.5548 81.3096 46.1019 81.3096H48.4259C48.6962 81.3096 48.9639 81.3628 49.2134 81.4663C49.463 81.5698 49.6896 81.7214 49.8802 81.9125C50.0708 82.1035 50.2216 82.3302 50.3239 82.5796C50.4262 82.8289 50.478 83.0959 50.4764 83.3653V83.4272ZM100 47.5139C99.9355 56.1022 96.6646 64.359 90.8246 70.6754C84.9845 76.9917 76.9937 80.9151 68.4093 81.6811H63.7382V76.6161H68.2974C73.9621 76.0742 79.3471 73.9052 83.7986 70.3725C88.2501 66.8398 91.5767 62.0952 93.3746 56.7149C95.1724 51.3346 95.3641 45.5499 93.9264 40.0631C92.4887 34.5763 89.4835 29.6234 85.2756 25.8057C81.0677 21.988 75.838 19.4697 70.2216 18.5565C64.6051 17.6433 58.8434 18.3746 53.636 20.6615C48.4285 22.9484 43.9993 26.6925 40.8861 31.4394C37.7728 36.1863 36.1094 41.7317 36.0978 47.4025V52.0217H30.9528V47.4025C30.9528 38.2784 34.5901 29.528 41.0645 23.0763C47.539 16.6245 56.3202 13 65.4764 13C74.6326 13 83.4138 16.6245 89.8883 23.0763C96.3627 29.528 100 38.2784 100 47.4025V47.5139ZM68.0489 25.483V46.3375L76.2883 54.5356C76.7687 55.0181 77.0383 55.6702 77.0383 56.3498C77.0383 57.0295 76.7687 57.6816 76.2883 58.1641C76.0494 58.4026 75.7656 58.5918 75.4532 58.7209C75.1408 58.8501 74.8059 58.9165 74.4677 58.9165C74.1295 58.9165 73.7946 58.8501 73.4822 58.7209C73.1698 58.5918 72.886 58.4026 72.6471 58.1641L62.9039 48.4427V25.483C62.9039 24.8031 63.1749 24.1511 63.6574 23.6703C64.1398 23.1896 64.7941 22.9195 65.4764 22.9195C66.1587 22.9195 66.813 23.1896 67.2954 23.6703C67.7779 24.1511 68.0489 24.8031 68.0489 25.483Z" fill="#222222" stroke="#222222" stroke-width="0.5" stroke-miterlimit="10"/>
</g>
<defs>
<clipPath id="clip0">
<rect width="110" height="110" fill="white"/>
</clipPath>
</defs>
</svg>
